<svg version="1.1" id="Layer_1" xmlns="http://www.w3.org/2000/svg" x="0" y="0" width="160" height="40" viewBox="0 0 160 40" xml:space="preserve"><path fill="#FCD62C" d="M79.2 5.9h-3.9L64 32.9h5.5l3-7h9.6l2.9 7h5.5l-11.3-27zm-4.8 15.2l2.9-8.2 2.9 8.2h-5.8zm54.1-15.2h-5v10.8h-9.7V5.9h-5V33h5V21.6h9.7V33h5V5.9zm6.9 27v-27h-5V33l5-.1zM107 10.3c-.3-.6-.7-1.1-1.1-1.6s-1-.9-1.5-1.3c-.7-.4-1.3-.8-2-.9-.7-.2-1.4-.4-2-.4-.5 0-1.4-.1-2.4-.1h-7.3v27.1h5V22.7h2.1c.9 0 1.8 0 2.6-.1s1.6-.2 2.3-.5c.7-.2 1.4-.6 2-1.1.7-.6 1.3-1.2 1.8-2 .5-.7.9-1.5 1.1-2.4s.4-1.7.4-2.6c-.1-1.2-.4-2.5-1-3.7zm-4.8 5.9c-.4.6-1 1-1.8 1.3-.7.2-2 .3-3.9.3h-.9v-7.1h.9c1.8 0 3 .1 3.7.2.8.2 1.4.6 1.8 1.2l.1.1c.4.6.7 1.2.7 2 .1.8-.1 1.4-.6 2z"/><path fill="#FCD62C" d="M56.6 23c2-.5 3.6-1.3 4.8-2.6.7-.8 1.2-1.7 1.6-2.8.4-1.1.6-2.1.6-3.1 0-.9-.1-1.7-.4-2.5-.2-.8-.6-1.6-1.1-2.3-.2-.3-.5-.7-.8-1l-.9-.9c-.8-.8-1.8-1.3-2.9-1.5s-2.4-.4-4-.4h-7.9v12.9H34.3l-2.8 4.7h10.4c-.1.2-.2.4-.3.7-.3.5-.7 1-1.1 1.5-.6.7-1.3 1.2-2.1 1.7-1.5.9-3 1.4-4.6 1.4-1.3 0-2.5-.3-3.8-.8-1-.4-1.9-1-2.7-1.8-.2-.1-.3-.3-.5-.5-.6-.6-1.1-1.4-1.5-2.2-.1-.2-.2-.5-.3-.7-.5-1.1-.7-2.2-.7-3.4 0-.7.1-1.4.3-2.2 0-.1.1-.2.1-.4.3-.9.6-1.6 1.1-2.4.2-.4.4-.7.7-1 .3-.3.6-.7.9-.9 1.8-1.6 3.9-2.3 6.3-2.3.9 0 1.8.2 2.7.4.8.2 1.6.6 2.4 1.2l2.6-4.3c-.8-.5-1.5-.8-2.2-1.1-1.8-.7-3.6-1-5.4-1-1.9 0-3.7.4-5.5 1.1-.7.3-1.4.7-2.1 1.1-.9.5-1.7 1.2-2.4 1.9l-.1.1c-1.3 1.3-2.4 2.8-3.2 4.5-.7 1.7-1.1 3.5-1.1 5.5s.4 3.8 1.1 5.5 1.8 3.2 3.2 4.5c.8.8 1.7 1.5 2.7 2 .5.3 1 .5 1.5.8.1.1.3.1.4.2 1.7.7 3.6 1.1 5.5 1.1 2.5 0 4.9-.6 7.1-1.8 2-1.1 3.6-2.6 4.9-4.4V33h5V22.6h.1l7 10.4h6.2l-7.5-10zm-5.3-4.2h-.7v-8h2.8c.9 0 1.6.1 2.2.2.6.1 1.1.4 1.5.7.3.2.5.5.7.7.1.2.3.4.4.6.2.6.4 1.1.4 1.7 0 1.2-.4 2.1-1.2 2.9-.8.7-2.2 1.1-4 1.1h-2.1v.1zm100.1 14.9h.5c.5 0 .9-.1 1.4-.1 1.1-.1 2.2-.4 3.3-.9 1-.4 2-.9 2.8-1.5l-2.1-3.5-.5-.8c-1.2.9-2.5 1.5-3.8 1.8-.5.1-1 .1-1.6.1-1.6 0-3-.4-4.4-1.3-.5-.3-1-.7-1.4-1-.7-.7-1.4-1.5-1.9-2.4-.8-1.4-1.2-2.9-1.2-4.5 0-1.7.4-3.2 1.2-4.6s1.9-2.6 3.2-3.4c.7-.5 1.5-.8 2.3-1 .7-.2 1.4-.3 2.2-.3h.3c1.3 0 2.5.3 3.6.9l2.4-4 .2-.3-1.2-.6c-1.7-.7-3.5-1-5.3-1-.9 0-1.8.1-2.7.3-1.5.3-2.8.8-4.2 1.6-2.1 1.3-3.8 3-5.1 5.1-1.3 2.2-1.9 4.5-1.9 7 0 1.9.4 3.7 1.1 5.5.7 1.7 1.7 3.2 3 4.5l.5.5c1.2 1.1 2.5 2 4 2.6 1.6.9 3.4 1.3 5.3 1.3zM7.8 33.5c.4.1.8.1 1.2.1 1.7 0 3.2-.4 4.7-1.2 1.4-.7 2.6-1.8 3.5-3.2.8-1.4 1.3-2.9 1.3-4.6 0-1.1-.2-2.1-.5-3.1-.3-.9-.8-1.8-1.4-2.5l-.1-.1c-.4-.5-.9-.8-1.4-1.1-.3-.2-.6-.3-1-.4.8-.5 1.4-1.2 1.8-2.1.4-.8.6-1.7.6-2.8 0-1-.2-2-.6-2.8-.3-.7-.7-1.3-1.1-1.8-.1-.2-.3-.3-.5-.5-.7-.6-1.5-1.2-2.4-1.5-.9-.4-1.8-.6-2.8-.6-1.1 0-2.2.3-3.2.8-.1.1-.3.2-.4.2-.8.5-1.5 1.2-2.2 2l3.2 3.2c.3-.3.5-.6.8-.8.5-.4 1.1-.6 1.7-.6.7 0 1.3.2 1.8.7l.4.4c.2.4.3.8.3 1.3 0 1.1-.4 1.8-1.1 2.2-.7.4-1.6.6-2.8.6h-.2v4.6h.5c.4 0 1.5.1 2.1.2s1.1.3 1.7.7c.4.2.7.5 1 .9.2.2.3.4.4.7.3.7.5 1.4.5 2.2 0 1.2-.4 2.2-1.2 3s-1.8 1.2-3 1.2c-.7 0-1.3-.1-1.8-.4-.1 0-.2-.1-.3-.1-.3-.1-.5-.3-.7-.5l-.9-.9c-.3-.4-.5-.9-.6-1.3 0-.2-.1-.4-.1-.7H0c.1 1.6.5 3 1.3 4.4.5.7 1 1.4 1.6 2 .5.4 1 .8 1.6 1.2 1.1.5 2.2.9 3.3 1z"/></svg>