<svg xmlns="http://www.w3.org/2000/svg" viewBox="0 0 2000 1125"><linearGradient id="IDSVG_01" gradientUnits="userSpaceOnUse" x1="671" y1="703" x2="1525" y2="-150"><stop offset="0" stop-color="#24547f" stop-opacity="0"/><stop offset="1" stop-opacity=".1"/></linearGradient><linearGradient id="IDSVG_02" gradientUnits="userSpaceOnUse" x1="1045" y1="634" x2="1017" y2="556"><stop offset="0" stop-color="#24547f" stop-opacity="0"/><stop offset="1" stop-opacity=".1"/></linearGradient><linearGradient id="IDSVG_03" gradientUnits="userSpaceOnUse" x1="1076.19" y1="281" x2="143" y2="-281"><stop offset="0" stop-color="#24547f" stop-opacity="0"/><stop offset="1" stop-opacity=".1"/></linearGradient><linearGradient id="IDSVG_04" gradientUnits="userSpaceOnUse" x1="1283" y1="316" x2="1957" y2="73"><stop offset="0" stop-color="#24547f" stop-opacity="0"/><stop offset="1" stop-opacity=".1"/></linearGradient><linearGradient id="IDSVG_05" gradientUnits="userSpaceOnUse" x1="1426" y1="146" x2="373" y2="461"><stop offset="0" stop-color="#24547f" stop-opacity="0"/><stop offset="1" stop-opacity=".1"/></linearGradient><path fill="url(#IDSVG_01)" d="M1454.1 243.3c-106.7-18.6-320.5-213-353.4-243.3H359.5c45 85.7 150.5 271.1 238.1 304.8 91.4 35.2 309.1-73.9 402.6-42.5 133.7 45 200.4 369.4 345.6 370.9 121.4 1.3 182.6-277.2 299.3-304.1 77.4-17.9 218.9 16.6 354.9 61.7v-67c-99-59-228.9-129-301.2-137.3-63.1-7.1-182.5 67.7-244.7 56.8z"/><path fill="url(#IDSVG_02)" d="M1645.1 329.2c-116.6 26.9-177.8 305.3-299.3 304.1-145.2-1.5-211.9-325.9-345.6-370.9-93.5-31.5-311.2 77.6-402.6 42.4C510.1 271.1 404.5 85.7 359.5 0H0v721.6c91.1 31.6 181.2 58.2 236.7 54.2 184.5-13.3 344.1-288 529.5-283.9 157.1 3.5 416.2 228.4 569 255.7 77.9 13.9 234.6-52.6 314.4-46.8 78.5 5.7 225.1 51.1 350.5 94.5V390.9c-136.2-45.1-277.6-79.6-355-61.7z"/><path fill="url(#IDSVG_03)" d="M1335.1 747.6c-152.8-27.3-411.8-252.2-569-255.7-185.3-4.1-344.9 270.6-529.5 283.9-55.5 4-145.6-22.6-236.7-54.2v140.1c200 100.2 504.3 235.9 661.3 222.1 125.9-11.1 223.5-233.2 350.6-235.2 165-2.6 539.2 163.1 774.3 276.3H2000V795.3c-125.4-43.3-272-88.8-350.5-94.5-79.8-5.8-236.5 60.7-314.4 46.8z"/><path fill="url(#IDSVG_04)" d="M1100.7 0c32.9 30.3 246.7 224.7 353.4 243.3 62.2 10.9 181.6-63.8 244.7-56.6 72.4 8.3 202.3 78.2 301.2 137.3V0h-899.3z"/><path fill="url(#IDSVG_05)" d="M1011.9 848.7c-127 2-224.7 224.1-350.6 235.2-157 13.8-461.3-122-661.3-222.2V1125h1786.2c-235.1-113.3-609.3-278.9-774.3-276.3z"/></svg>