<svg xmlns="http://www.w3.org/2000/svg" viewBox="0 0 2000 1125"><linearGradient id="IDSVG_01" gradientUnits="userSpaceOnUse" x1="1635" y1="4" x2="1635" y2="89"><stop offset="0" stop-color="#463b75" stop-opacity="0"/><stop offset="1" stop-opacity=".1"/></linearGradient><linearGradient id="IDSVG_02" gradientUnits="userSpaceOnUse" x1="1224" y1="8" x2="1224" y2="446"><stop offset="0" stop-color="#463b75" stop-opacity="0"/><stop offset="1" stop-opacity=".1"/></linearGradient><linearGradient id="IDSVG_03" gradientUnits="userSpaceOnUse" x1="1000" y1="208" x2="1000" y2="829"><stop offset="0" stop-color="#463b75" stop-opacity="0"/><stop offset="1" stop-opacity=".1"/></linearGradient><linearGradient id="IDSVG_04" gradientUnits="userSpaceOnUse" x1="1000" y1="868" x2="1000" y2="1050"><stop offset="0" stop-color="#463b75" stop-opacity="0"/><stop offset="1" stop-opacity=".1"/></linearGradient><linearGradient id="IDSVG_05" gradientUnits="userSpaceOnUse" x1="1460" y1="963" x2="1460" y2="1105"><stop offset="0" stop-color="#463b75" stop-opacity="0"/><stop offset="1" stop-opacity=".1"/></linearGradient><path fill="url(#IDSVG_01)" d="M1372 0s-133.4 208.9-94.3 272.3c49.8 80.7 340.5 71.5 418.3 136.7 21.6 18.1 15.8 79.7 41.3 94.2 53.5 30.3 262.7.4 262.7.4V0h-628z"/><path fill="url(#IDSVG_02)" d="M1737.3 503.2c-25.6-14.5-19.7-76.1-41.3-94.2-77.7-65.3-368.5-56-418.3-136.7C1238.5 208.9 1372 0 1372 0H449s311.8 47.1 377 107.5c120.4 111.7-30.7 521.1 140.2 577.6 100.3 33.1 252.6-182.4 360.4-192.7 119.9-11.5 332.7 133.2 453.5 132.6 58.9-.3 220-66.8 220-66.8v-54.6c-.1 0-209.3 29.9-262.8-.4z"/><path fill="url(#IDSVG_03)" d="M1326.5 492.4c-107.8 10.3-260.1 225.8-360.4 192.7-170.9-56.5-19.8-465.9-140.2-577.6C760.7 47.1 448.9 0 448.9 0H0v518.3s277.8-89.1 368.2-67.2c173.4 42 322.4 379.4 496.2 420.1 171.4 40.2 526.2-186.3 693.8-137 66.3 19.5 93.2 181.7 163.9 183.1 112.2 2.2 277.9-280.2 277.9-280.2v-79s-161.1 66.5-220 66.8c-120.8.7-333.5-144-453.5-132.5z"/><path fill="url(#IDSVG_04)" d="M1722.1 917.4c-70.7-1.4-97.6-163.6-163.9-183.1-167.6-49.3-522.4 177.2-693.8 137-173.9-40.7-322.8-378.2-496.2-420.1C277.8 429.3 0 518.3 0 518.3V1125h921.6s439.8-163.8 598.6-173.7c90.9-5.6 271.7 79.6 357.9 56 49.3-13.5 121.9-134.6 121.9-134.6V637.2s-165.7 282.4-277.9 280.2z"/><path fill="url(#IDSVG_05)" d="M1878.1 1007.3c-86.2 23.6-267-61.6-357.9-56-158.8 9.8-598.6 173.7-598.6 173.7H2000V872.7s-72.6 121.1-121.9 134.6z"/></svg>