<svg xmlns="http://www.w3.org/2000/svg" viewBox="0 0 2000 1125"><linearGradient id="IDSVG_01" gradientUnits="userSpaceOnUse" x1="978" y1="728" x2="1241" y2="991" gradientTransform="matrix(-1 0 0 1 2000 0)"><stop offset="0" stop-color="#86506c" stop-opacity="0"/><stop offset="1" stop-opacity=".1"/></linearGradient><linearGradient id="IDSVG_02" gradientUnits="userSpaceOnUse" x1="800" y1="453" x2="1969" y2="1128" gradientTransform="matrix(-1 0 0 1 2000 0)"><stop offset="0" stop-color="#86506c" stop-opacity="0"/><stop offset="1" stop-opacity=".1"/></linearGradient><linearGradient id="IDSVG_03" gradientUnits="userSpaceOnUse" x1="726" y1="316" x2="1794" y2="316" gradientTransform="matrix(-1 0 0 1 2000 0)"><stop offset="0" stop-color="#86506c" stop-opacity="0"/><stop offset="1" stop-opacity=".1"/></linearGradient><linearGradient id="IDSVG_04" gradientUnits="userSpaceOnUse" x1="1200" y1="963" x2="1962" y2="963" gradientTransform="matrix(-1 0 0 1 2000 0)"><stop offset="0" stop-color="#86506c" stop-opacity="0"/><stop offset="1" stop-opacity=".1"/></linearGradient><linearGradient id="IDSVG_05" gradientUnits="userSpaceOnUse" x1="1111" y1="190" x2="41" y2="-96" gradientTransform="matrix(-1 0 0 1 2000 0)"><stop offset="0" stop-color="#86506c" stop-opacity="0"/><stop offset="1" stop-opacity=".1"/></linearGradient><path fill="url(#IDSVG_01)" d="M1402.4 820.2c-91.4-35.2-309.1 73.9-402.6 42.5-133.7-45-200.4-369.4-345.6-370.9-121.4-1.3-182.6 277.2-299.3 304.1C277.5 813.8 136 779.3 0 734.2v67c99 59 228.9 129 301.2 137.3 63.1 7.1 182.5-67.7 244.7-56.8 106.7 18.6 320.5 213 353.4 243.3h741.2c-45-85.7-150.5-271.1-238.1-304.8z"/><path fill="url(#IDSVG_02)" d="M1763.3 349.2c-184.5 13.3-344.1 288-529.5 283.9-157.1-3.5-416.2-228.4-569-255.7-77.9-13.9-234.6 52.6-314.4 46.8-78.5-5.7-225.1-51.1-350.5-94.5v404.4c136.2 45.1 277.6 79.6 355 61.7 116.6-26.9 177.8-305.3 299.3-304.1 145.2 1.5 211.9 325.9 345.6 370.9 93.5 31.5 311.2-77.6 402.6-42.4 87.5 33.7 193.1 219.1 238.1 304.8H2000V403.4c-91.1-31.6-181.2-58.2-236.7-54.2z"/><path fill="url(#IDSVG_03)" d="M1338.8 41.2c-125.9 11.1-223.5 233.2-350.6 235.2C823.2 279 449 113.3 213.9.1H0v329.6c125.4 43.3 272 88.8 350.5 94.5 79.8 5.8 236.5-60.7 314.4-46.8 152.8 27.3 411.8 252.2 569 255.7 185.3 4.1 344.9-270.6 529.5-283.9 55.5-4 145.6 22.6 236.7 54.2V263.3c-200-100.2-504.3-235.9-661.3-222.1z"/><path fill="url(#IDSVG_04)" d="M545.9 881.7c-62.2-10.9-181.6 63.8-244.7 56.6C228.8 930 98.9 860.1 0 801v324h899.3c-32.9-30.3-246.7-224.7-353.4-243.3z"/><path fill="url(#IDSVG_05)" d="M386.3 0H213.8c235.1 113.3 609.3 278.9 774.3 276.3 127-2 224.7-224.1 350.6-235.2 157-13.8 461.3 122 661.3 222.2V0H386.3z"/></svg>