<svg xmlns="http://www.w3.org/2000/svg" viewBox="0 0 2000 1125"><linearGradient id="IDSVG_01" gradientUnits="userSpaceOnUse" x1="2000" y1="-50" x2="1777" y2="346" gradientTransform="rotate(180 1000 562.5)"><stop offset="0" stop-color="#d19e5b" stop-opacity="0"/><stop offset="1" stop-opacity=".1"/></linearGradient><linearGradient id="IDSVG_02" gradientUnits="userSpaceOnUse" x1="1994" y1="345" x2="1181" y2="345" gradientTransform="rotate(180 1000 562.5)"><stop offset="0" stop-color="#d19e5b" stop-opacity="0"/><stop offset="1" stop-opacity=".1"/></linearGradient><linearGradient id="IDSVG_03" gradientUnits="userSpaceOnUse" x1="1326" y1="-15" x2="1326" y2="622" gradientTransform="rotate(180 1000 562.5)"><stop offset="0" stop-color="#d19e5b" stop-opacity="0"/><stop offset="1" stop-opacity=".1"/></linearGradient><linearGradient id="IDSVG_04" gradientUnits="userSpaceOnUse" x1="1907" y1="1120" x2="337" y2="213" gradientTransform="rotate(180 1000 562.5)"><stop offset="0" stop-color="#d19e5b" stop-opacity="0"/><stop offset="1" stop-opacity=".1"/></linearGradient><linearGradient id="IDSVG_05" gradientUnits="userSpaceOnUse" x1="1000" y1="610" x2="1000" y2="1002" gradientTransform="rotate(180 1000 562.5)"><stop offset="0" stop-color="#d19e5b" stop-opacity="0"/><stop offset="1" stop-opacity=".1"/></linearGradient><linearGradient id="IDSVG_06" gradientUnits="userSpaceOnUse" x1="1072" y1="906" x2="1072" y2="1108" gradientTransform="rotate(180 1000 562.5)"><stop offset="0" stop-color="#d19e5b" stop-opacity="0"/><stop offset="1" stop-opacity=".1"/></linearGradient><path fill="url(#IDSVG_01)" d="M295.8 1125c42.7-52 96.6-128.4 77.4-162.4-23.5-41.4-176.5-22.2-218.8-52.9C100 870.4 44.6 769.3 0 669.7V1125h295.8z"/><path fill="url(#IDSVG_02)" d="M154.4 909.8c42.2 30.6 195.3 11.4 218.8 52.9 19.2 33.9-34.7 110.4-77.4 162.4h446.1c43.7-84.1 183.5-371 98.1-446.7-85.9-76.1-394 69.8-513 31.1C234.3 679.4 92.8 537.1 0 435v234.7c44.6 99.6 100 200.7 154.4 240.1z"/><path fill="url(#IDSVG_03)" d="M326.9 709.4c119.1 38.7 427.1-107.2 513-31.1 85.4 75.7-54.4 362.6-98.1 446.7h605.6c-18.5-160.7-81-573.2-240.6-650.6-163.7-79.3-565.7 166.3-750.6 125.8-94-20.6-232.7-118.1-356.2-218.4V435c92.8 102.1 234.3 244.4 326.9 274.4z"/><path fill="url(#IDSVG_04)" d="M1106.9 474.4c159.6 77.3 222 489.9 240.6 650.6H2000V809.7c-120-154.4-282.3-341.9-399-394.4-131.2-59.1-463.3 7.5-601-41.5-91.6-32.6-196.9-193.8-292.2-219-118-31.1-372.3 120-494.1 100.2C158.2 245.9 83 220.6 0 186.8v195c123.5 100.3 262.2 197.8 356.3 218.4 184.9 40.6 586.8-205.1 750.6-125.8z"/><path fill="url(#IDSVG_05)" d="M707.8 154.7c95.3 25.1 200.5 186.3 292.2 219 137.6 49 469.7-17.5 601 41.5 116.7 52.6 279.1 240.1 399 394.4V0h-184.7c-224.1 105-560.2 247.7-726 245.1C983 243.4 817 101.2 711.6 89.4c-121.4-13.7-367.8 114-481 76.4C171 146 103 78.3 40.5 0H0v186.8c83 33.7 158.2 59.1 213.8 68.1 121.8 19.9 376-131.3 494-100.2z"/><path fill="url(#IDSVG_06)" d="M230.7 165.8c113.2 37.5 359.6-90.1 481-76.4C817 101.2 983 243.5 1089.4 245.1c165.8 2.6 501.9-140.1 726-245.1H40.5C103 78.3 171 146 230.7 165.8z"/></svg>