<svg xmlns="http://www.w3.org/2000/svg" viewBox="0 0 2000 1125"><linearGradient id="IDSVG_01" gradientUnits="userSpaceOnUse" x1="2006" y1="-50" x2="1777" y2="346" gradientTransform="rotate(180 1000 562.5)"><stop offset="0" stop-color="#e48f92" stop-opacity="0"/><stop offset="1" stop-opacity=".1"/></linearGradient><linearGradient id="IDSVG_02" gradientUnits="userSpaceOnUse" x1="1994" y1="345" x2="1181" y2="345" gradientTransform="rotate(180 1000 562.5)"><stop offset="0" stop-color="#e48f92" stop-opacity="0"/><stop offset="1" stop-opacity=".1"/></linearGradient><linearGradient id="IDSVG_03" gradientUnits="userSpaceOnUse" x1="1326" y1="-15" x2="1326" y2="622" gradientTransform="rotate(180 1000 562.5)"><stop offset="0" stop-color="#e48f92" stop-opacity="0"/><stop offset="1" stop-opacity=".1"/></linearGradient><linearGradient id="IDSVG_04" gradientUnits="userSpaceOnUse" x1="1907" y1="1120" x2="337" y2="213" gradientTransform="rotate(180 1000 562.5)"><stop offset="0" stop-color="#e48f92" stop-opacity="0"/><stop offset="1" stop-opacity=".1"/></linearGradient><linearGradient id="IDSVG_05" gradientUnits="userSpaceOnUse" x1="1000" y1="610" x2="1000" y2="1002" gradientTransform="rotate(180 1000 562.5)"><stop offset="0" stop-color="#e48f92" stop-opacity="0"/><stop offset="1" stop-opacity=".1"/></linearGradient><linearGradient id="IDSVG_06" gradientUnits="userSpaceOnUse" x1="1072" y1="906" x2="1072" y2="1108" gradientTransform="rotate(180 1000 562.5)"><stop offset="0" stop-color="#e48f92" stop-opacity="0"/><stop offset="1" stop-opacity=".1"/></linearGradient><path fill="url(#IDSVG_01)" d="M1704.2 0c-42.7 52-96.6 128.4-77.4 162.4 23.5 41.4 176.5 22.2 218.8 52.9 54.4 39.4 109.8 140.5 154.4 240.1V0h-295.8z"/><path fill="url(#IDSVG_02)" d="M1845.6 215.2c-42.2-30.6-195.3-11.4-218.8-52.9-19.2-33.9 34.8-110.3 77.4-162.3h-446.1c-43.7 84.1-183.5 371-98.1 446.7 85.9 76.1 394-69.8 513-31.1 92.6 30.1 234 172.3 326.9 274.5V455.3c-44.5-99.6-99.9-200.7-154.3-240.1z"/><path fill="url(#IDSVG_03)" d="M1673.1 415.6c-119.1-38.7-427.1 107.2-513 31.1-85.4-75.7 54.4-362.6 98.1-446.7H652.6c18.5 160.7 81 573.2 240.6 650.6 163.7 79.3 565.7-166.3 750.6-125.8 94.1 20.6 232.8 118.1 356.3 218.4V690c-92.9-102.1-234.4-244.4-327-274.4z"/><path fill="url(#IDSVG_04)" d="M893.1 650.6C733.5 573.2 671.1 160.7 652.6 0H0v315.3c120 154.4 282.3 341.9 399 394.4 131.2 59.1 463.3-7.5 601 41.5 91.6 32.6 196.9 193.8 292.2 219 118 31.1 372.3-120 494.1-100.2 55.6 9.1 130.8 34.4 213.8 68.1v-195c-123.5-100.3-262.2-197.8-356.3-218.4-185-40.5-586.9 205.2-750.7 125.9z"/><path fill="url(#IDSVG_05)" d="M1292.2 970.3c-95.3-25.1-200.5-186.3-292.2-219-137.6-49-469.7 17.5-601-41.5C282.3 657.2 120 469.7 0 315.3V1125h184.7c224.1-105 560.2-247.7 726-245.1 106.3 1.7 272.3 143.9 377.7 155.7 121.4 13.7 367.8-114 481-76.4 59.7 19.8 127.7 87.6 190.1 165.8h40.5V938.2c-83-33.7-158.2-59.1-213.8-68.1-121.8-19.9-376 131.3-494 100.2z"/><path fill="url(#IDSVG_06)" d="M1769.3 959.2c-113.2-37.5-359.6 90.1-481 76.4-105.3-11.8-271.3-154.1-377.7-155.7-165.8-2.6-501.9 140.1-726 245.1h1774.7c-62.3-78.3-130.3-146-190-165.8z"/></svg>