<svg xmlns="http://www.w3.org/2000/svg" viewBox="0 0 2000 1125" ><linearGradient id="SVGID_1_" gradientUnits="userSpaceOnUse" x1="18" y1="921" x2="648" y2="921" gradientTransform="matrix(1 0 0 -1 0 1126)"><stop  offset="0.5" style="stop-color:#000000;stop-opacity:0.1"/><stop  offset="1" style="stop-color:#463B75;stop-opacity:0"/></linearGradient><path fill="url(#SVGID_1_)" d="M0.9,352.5c0,0,371,75.3,483.7,53.5C628,378.2,611.9,215,727.8,171.5c32.2-12.1,141.6-8.7,167.4-23 c53.9-30,0.9-147.4,0.9-147.4L1.4,0L0.9,352.5z"/><linearGradient id="SVGID_2" gradientUnits="userSpaceOnUse" x1="612" y1="429" x2="612" y2="867" gradientTransform="matrix(1 0 0 -1 0 1126)"><stop  offset="0" style="stop-color:#463B75;stop-opacity:0"/><stop  offset="1" style="stop-color:#000000;stop-opacity:0.1"/></linearGradient><path fill="url(#SVGID_2)" d="M895.2,148.5c-25.8,14.3-135.2,10.9-167.4,23 C611.7,215,628,378.2,484.6,406C372,427.9,0.9,352.5,0.9,352.5l-0.6,518c0,0,83.9-174.9,191.2-211.4 c198.5-67.3,925.7,18.4,1026.2-77.4c58.9-56.2-323.9-142.2-342.1-202.7c-20.3-67.3,236.9-186.4,235.9-254.2
C1111.1,91.7,993.1,1.2,993.1,1.2l-97-0.1C896.1,1.1,949,118.6,895.2,148.5z"/><linearGradient id="SVGID_3" gradientUnits="userSpaceOnUse" x1="815" y1="226" x2="815" y2="846" gradientTransform="matrix(1 0 0 -1 0 1126)"><stop  offset="0" style="stop-color:#000000;stop-opacity:0.1"/><stop  offset="0.7" style="stop-color:#463B75;stop-opacity:0"/></linearGradient><path fill="url(#SVGID_3)" d="M875.7,379.1c18.2,60.5,401,146.5,342.1,202.7
c-100.5,95.8-827.7,10.1-1026.2,77.4C84.2,695.7,0.3,870.6,0.3,870.6l-0.3,252l920.8,1.1c0,0-158.1-156.1-119.1-206.8
c74.7-97.2,674.2-180.1,746.7-277.6c71.5-96.1-330.6-295.7-242.9-389.7c34.7-37.2,322.9-51.9,325.4-91.6 c4-63-497.6-156.6-497.6-156.6L992.9,1.2c0,0,118,90.6,118.5,123.6C1112.6,192.6,855.3,311.7,875.7,379.1L875.7,379.1z"/>
<linearGradient id="SVGID_4" gradientUnits="userSpaceOnUse" x1="1397.4043" y1="458" x2="1397.4043" y2="640" gradientTransform="matrix(1 0 0 -1 0 1126)">
<stop  offset="0" style="stop-color:#463B75;stop-opacity:0"/><stop  offset="1" style="stop-color:#000000;stop-opacity:0.1"/></linearGradient>
<path fill="url(#SVGID_4)" d="M1631,158c-2.5,39.7-290.7,54.4-325.4,91.6 c-87.7,94,314.4,293.6,242.9,389.7c-72.4,97.5-672.1,180.4-746.7,277.6c-39,50.7,119,206.8,119,206.8l1077.8,1.3l0.6-517.3
c0,0-290.7-247.2-308.2-336.4c-9.9-51,141.6-152.3,99.7-200.8c-23.9-27.7-239-68.7-239-68.7l-418.4-0.5C1133.4,1.4,1635,95,1631,158z"/>
<linearGradient id="SVGID_5" gradientUnits="userSpaceOnUse" x1="1732" y1="821" x2="1977" y2="821" gradientTransform="matrix(1 0 0 -1 0 1126)"><stop  offset="0" style="stop-color:#463B75;stop-opacity:0"/><stop  offset="0.5938" style="stop-color:#1B172D;stop-opacity:5.937513e-02"/><stop  offset="1" style="stop-color:#000000;stop-opacity:0.1"/></linearGradient><path fill="url(#SVGID_5)" d="M1790.8,70.6c41.9,48.4-109.6,149.7-99.7,200.8	c17.3,89.2,308.2,336.4,308.2,336.4L2000,2.5L1551.8,2C1551.8,1.9,1766.9,42.9,1790.8,70.6L1790.8,70.6z"/></svg>
