<svg xmlns="http://www.w3.org/2000/svg" xmlns:xlink="http://www.w3.org/1999/xlink" width="2400" height="1350" viewBox="0 0 2400 1350">
<defs>
<linearGradient id="linear-gradient" x1="209.52" y1="2800.04" x2="219.6" y2="2792.82" gradientTransform="matrix(0.91, -0.48, 0.68, 0.96, -1731.38, -1760.28)" gradientUnits="userSpaceOnUse">
<stop offset="0" stop-color="#fbe838"/>
<stop offset="0.01" stop-color="#fadb2a"/>
<stop offset="0.03" stop-color="#facb19"/>
<stop offset="0.06" stop-color="#f9bf0e"/>
<stop offset="0.09" stop-color="#f9b907"/>
<stop offset="0.18" stop-color="#f9b705"/>
<stop offset="0.22" stop-color="#fac00f"/>
<stop offset="0.35" stop-color="#fbd929"/>
<stop offset="0.47" stop-color="#fce838"/>
<stop offset="0.56" stop-color="#fced3e"/>
<stop offset="0.62" stop-color="#f7cb24"/>
<stop offset="0.68" stop-color="#f4b010"/>
<stop offset="0.73" stop-color="#f2a104"/>
<stop offset="0.77" stop-color="#f19b00"/>
<stop offset="0.85" stop-color="#f4ab08"/>
<stop offset="0.89" stop-color="#f6b80f"/>
</linearGradient>
<radialGradient id="radial-gradient" cx="358.88" cy="3088.87" r="13.52" gradientTransform="matrix(0.54, -0.52, 0.23, 0.64, -535.17, -944.96)" gradientUnits="userSpaceOnUse">
<stop offset="0.02" stop-color="#ec8d00"/>
<stop offset="0.21" stop-color="#ee9908"/>
<stop offset="0.55" stop-color="#f3b81c"/>
<stop offset="0.99" stop-color="#fcea3d"/>
</radialGradient>
<linearGradient id="linear-gradient-2" x1="166.11" y1="2793.5" x2="176.19" y2="2786.28" xlink:href="#linear-gradient"/>
<radialGradient id="radial-gradient-2" cx="285.64" cy="3058.87" r="13.52" xlink:href="#radial-gradient"/>
<linearGradient id="linear-gradient-3" x1="118.5" y1="2789.04" x2="128.58" y2="2781.82" xlink:href="#linear-gradient"/>
<linearGradient id="linear-gradient-4" x1="1856.2" y1="1185.86" x2="2059.37" y2="1185.86" gradientTransform="matrix(2.39, 1.62, 0.56, -0.83, -3104.42, -1340.95)" gradientUnits="userSpaceOnUse">
<stop offset="0" stop-color="#2b8992"/>
<stop offset="0.11" stop-color="#2f9399"/>
<stop offset="0.29" stop-color="#39afab"/>
<stop offset="0.44" stop-color="#43ccbe"/>
<stop offset="0.51" stop-color="#41c7bb"/>
<stop offset="0.58" stop-color="#3dbab1"/>
<stop offset="0.66" stop-color="#35a4a1"/>
<stop offset="0.71" stop-color="#2e9194"/>
<stop offset="1" stop-color="#42cab9"/>
</linearGradient>
<linearGradient id="linear-gradient-5" x1="1856.19" y1="1162.26" x2="2059.36" y2="1162.26" xlink:href="#linear-gradient-4"/>
<linearGradient id="linear-gradient-6" x1="1856.19" y1="1138.6" x2="2059.36" y2="1138.6" xlink:href="#linear-gradient-4"/>
<linearGradient id="linear-gradient-7" x1="1856.21" y1="1115" x2="2059.38" y2="1115" xlink:href="#linear-gradient-4"/>
<linearGradient id="linear-gradient-8" x1="1856.21" y1="1091.36" x2="2059.38" y2="1091.36" xlink:href="#linear-gradient-4"/>
<linearGradient id="linear-gradient-9" x1="1856.19" y1="1067.72" x2="2059.36" y2="1067.72" xlink:href="#linear-gradient-4"/>
<linearGradient id="linear-gradient-10" x1="1856.18" y1="1044.11" x2="2059.35" y2="1044.11" xlink:href="#linear-gradient-4"/>
</defs>
<polygon points="0 804.4 822 1145.7 612.7 1349.4 0 1349.4 0 804.4" fill="#02aebc"/>
<polygon points="1466.7 899.1 2093.9 0 2405.3 0 2405.3 1349.4 2037.3 1349.4 1466.7 899.1" fill="#02aebc"/>
<path d="M418.6,850a1,1,0,0,1-.5-.4l-.1-.1c-.2-.1-.3-.3-.5-.5v-.1a4.38,4.38,0,0,1-.4-.7h0c-.1-.3-.2-.5-.3-.8a7.07,7.07,0,0,1,2.7-7.1c.1,0,.1-.1.2-.1.3-.1.5-.2.8-.3a.37.37,0,0,0,.3-.1c.2,0,.3-.1.5-.1h.7c.1,0,.2.1.3.1a.37.37,0,0,1,.3.1L315.8,793.3a2.89,2.89,0,0,0-2.8.3c-.1,0-.1.1-.2.1a7,7,0,0,0-2.7,7.1,3.57,3.57,0,0,0,1.9,2.6L418.8,850C418.8,850.1,418.7,850.1,418.6,850Z" transform="translate(0 -0.6)" fill="url(#linear-gradient)"/>
<path d="M378.9,856.7c-.1-1.4-.7-2.2-1.5-2.4-.1,0-.1,0-.2-.1h-.5c-.1,0-.3.1-.4.1s-.1,0-.2.1a2.17,2.17,0,0,0-.6.4c-.1,0-.1.1-.2.1a9.18,9.18,0,0,0-2.7,7.1c0,.3.1.5.1.8h0c.1.2.1.4.2.6v.1a1.31,1.31,0,0,0,.3.4h0a1.31,1.31,0,0,0,.4.3h.1a2,2,0,0,0,2.2-.5c.1,0,.1-.1.2-.1C377.9,862.3,379.1,859.1,378.9,856.7Z" transform="translate(0 -0.6)" fill="url(#radial-gradient)"/>
<path d="M374.6,864.7a1,1,0,0,1-.5-.4l-.1-.1c-.2-.1-.3-.3-.5-.5v-.1a4.38,4.38,0,0,1-.4-.7h0c-.1-.3-.2-.5-.3-.8a7.07,7.07,0,0,1,2.7-7.1c.1,0,.1-.1.2-.1.3-.1.5-.2.8-.3a.37.37,0,0,0,.3-.1c.2,0,.3-.1.5-.1h.7c.1,0,.2.1.3.1a.37.37,0,0,1,.3.1L271.8,808a2.89,2.89,0,0,0-2.8.3c-.1,0-.1.1-.2.1a7,7,0,0,0-2.7,7.1,3.57,3.57,0,0,0,1.9,2.6l106.8,46.6c0,.1-.1.1-.2,0Z" transform="translate(0 -0.6)" fill="url(#linear-gradient-2)"/>
<path d="M332.5,875.4c-.1-1.4-.7-2.2-1.5-2.4-.1,0-.1,0-.2-.1h-.5c-.1,0-.3.1-.4.1s-.1,0-.2.1a2.17,2.17,0,0,0-.6.4c-.1,0-.1.1-.2.1a9.18,9.18,0,0,0-2.7,7.1c0,.3.1.5.1.8h0c.1.2.1.4.2.6v.1a1.31,1.31,0,0,0,.3.4h0a1.31,1.31,0,0,0,.4.3h.1a2,2,0,0,0,2.2-.5c.1,0,.1-.1.2-.1C331.5,881,332.7,877.8,332.5,875.4Z" transform="translate(0 -0.6)" fill="url(#radial-gradient-2)"/>
<path d="M328.2,883.4a1,1,0,0,1-.5-.4l-.1-.1c-.2-.1-.3-.3-.5-.5v-.1a4.38,4.38,0,0,1-.4-.7h0c-.1-.3-.2-.5-.3-.8a7.07,7.07,0,0,1,2.7-7.1c.1,0,.1-.1.2-.1.3-.1.5-.2.8-.3a.37.37,0,0,0,.3-.1c.2,0,.3-.1.5-.1h.7c.1,0,.2.1.3.1a.37.37,0,0,1,.3.1L225.4,826.7a2.89,2.89,0,0,0-2.8.3c-.1,0-.1.1-.2.1a7,7,0,0,0-2.7,7.1,3.57,3.57,0,0,0,1.9,2.6l106.7,46.6Z" transform="translate(0 -0.6)" fill="url(#linear-gradient-3)"/>
<polygon points="2004.8 680.4 1997.9 690.5 2397.3 961.3 2397.3 946.4 2004.8 680.4" fill="url(#linear-gradient-4)"/>
<polygon points="1984.6 710.1 2397.3 989.8 2397.3 975 1991.5 699.9 1984.6 710.1" fill="url(#linear-gradient-5)"/>
<polygon points="1971.3 729.7 2397.3 1018.4 2397.3 1003.6 1978.2 719.5 1971.3 729.7" fill="url(#linear-gradient-6)"/>
<polygon points="1958.1 749.3 2397.3 1047 2397.3 1032.2 1965 739.1 1958.1 749.3" fill="url(#linear-gradient-7)"/>
<polygon points="1944.8 768.9 2397.3 1075.6 2397.3 1060.7 1951.7 758.7 1944.8 768.9" fill="url(#linear-gradient-8)"/>
<polygon points="1931.5 788.4 2397.3 1104.2 2397.3 1089.3 1938.4 778.3 1931.5 788.4" fill="url(#linear-gradient-9)"/>
<polygon points="1918.2 808 2397.3 1132.7 2397.3 1117.9 1925.1 797.8 1918.2 808" fill="url(#linear-gradient-10)"/>
</svg>
