<svg xmlns="http://www.w3.org/2000/svg" xmlns:xlink="http://www.w3.org/1999/xlink" width="2400" height="1350" viewBox="0 0 2400 1350">
<defs>
<radialGradient id="radial-gradient" cx="574.35" cy="3520.55" r="102.33" gradientTransform="translate(-2100.94 -1875.36) rotate(-31.61)" gradientUnits="userSpaceOnUse">
<stop offset="0" stop-color="#f69b00"/>
<stop offset="0.61" stop-color="#f69400"/>
<stop offset="1" stop-color="#f78c00"/>
</radialGradient>
<radialGradient id="radial-gradient-2" cx="2327.92" cy="3535.51" r="32.53" gradientTransform="matrix(0.91, -0.17, 0.16, 0.91, -2443.47, -1877.29)" gradientUnits="userSpaceOnUse">
<stop offset="0.28" stop-color="#f6b300"/>
<stop offset="0.51" stop-color="#f6ac00"/>
<stop offset="0.85" stop-color="#f79700"/>
<stop offset="1" stop-color="#f78c00"/>
</radialGradient>
<radialGradient id="radial-gradient-3" cx="-1341.94" cy="6471.99" fx="-1430.313086746401" r="108.82" gradientTransform="matrix(0.55, 0.3, -0.45, 0.37, 5094.15, -1146.22)" gradientUnits="userSpaceOnUse">
<stop offset="0"/>
<stop offset="0.5" stop-opacity="0"/>
</radialGradient>
<radialGradient id="radial-gradient-4" cx="1944.88" cy="916.29" fx="1944.8843778620721" r="38.59" gradientTransform="matrix(3.56, -0.33, 0.9, 0.76, -5734.06, 836.38)" xlink:href="#radial-gradient-3"/>
<radialGradient id="radial-gradient-5" cx="2207.74" cy="3475.43" r="109.07" gradientTransform="translate(-200.96 -2700)" gradientUnits="userSpaceOnUse">
<stop offset="0.13" stop-color="#f3d7d6"/>
<stop offset="0.6" stop-color="#ecd2d1"/>
<stop offset="0.73" stop-color="#e7cbc8"/>
<stop offset="0.95" stop-color="#d9b8b0"/>
<stop offset="1" stop-color="#d5b3aa"/>
</radialGradient>
<linearGradient id="linear-gradient" x1="-1687.64" y1="279.36" x2="-1697.36" y2="336.53" gradientTransform="matrix(0.62, -0.78, 2.21, 1.76, 2339.75, -1000.54)" gradientUnits="userSpaceOnUse">
<stop offset="0" stop-color="#ebd3d2"/>
<stop offset="0.26" stop-color="#e8cfce"/>
<stop offset="0.52" stop-color="#dec5c2"/>
<stop offset="0.78" stop-color="#ceb3ae"/>
<stop offset="1" stop-color="#bb9e96"/>
</linearGradient>
<linearGradient id="linear-gradient-2" x1="2059.33" y1="716.36" x2="2122.31" y2="716.36" gradientTransform="matrix(1, 0, 0, 1, 0, 0)" xlink:href="#linear-gradient"/>
<radialGradient id="radial-gradient-6" cx="1819.82" cy="849.39" fx="1819.8172962852168" r="49.54" gradientTransform="matrix(0.5, -0.87, 1.54, 0.88, -484.64, 1635.48)" xlink:href="#radial-gradient-3"/>
<radialGradient id="radial-gradient-7" cx="15251.05" cy="1996.96" r="72.6" gradientTransform="matrix(0.08, 0.27, -0.39, 0.11, 1267.91, -3583.23)" gradientUnits="userSpaceOnUse">
<stop offset="0" stop-color="#3f8250"/>
<stop offset="0.08" stop-color="#3b7b4b" stop-opacity="0.86"/>
<stop offset="0.21" stop-color="#32663f" stop-opacity="0.66"/>
<stop offset="0.36" stop-color="#21452a" stop-opacity="0.41"/>
<stop offset="0.53" stop-color="#0b170e" stop-opacity="0.12"/>
<stop offset="0.6" stop-opacity="0"/>
</radialGradient>
<radialGradient id="radial-gradient-8" cx="1668.93" cy="236.91" fx="1668.9251939692767" r="80.24" gradientTransform="translate(27.3 -23.04) rotate(9.91) scale(1 0.36)" xlink:href="#radial-gradient-3"/>
<radialGradient id="radial-gradient-9" cx="2133.84" cy="346.57" fx="2133.8375439084048" r="70.69" gradientTransform="matrix(1, 0, 0, 1, 0, 0)" xlink:href="#radial-gradient-3"/>
<radialGradient id="radial-gradient-10" cx="1860.39" cy="3076.48" r="131.62" gradientTransform="translate(-144.15 -2535.56) rotate(-8.7) scale(0.99)" gradientUnits="userSpaceOnUse">
<stop offset="0" stop-color="#f3d7d6"/>
<stop offset="0.24" stop-color="#ecd2d1"/>
<stop offset="0.38" stop-color="#e7cbc8"/>
<stop offset="0.6" stop-color="#d9b8b0"/>
<stop offset="0.65" stop-color="#d5b3aa"/>
<stop offset="1" stop-color="#a98c7a"/>
</radialGradient>
<radialGradient id="radial-gradient-11" cx="4972.17" cy="-954.82" r="23.97" gradientTransform="matrix(-0.75, 0.94, -0.86, -0.68, 5064.91, -5104.03)" gradientUnits="userSpaceOnUse">
<stop offset="0" stop-color="#fff"/>
<stop offset="0.69" stop-color="#fff" stop-opacity="0"/>
</radialGradient>
<radialGradient id="radial-gradient-12" cx="4246.93" cy="2577.19" r="70.76" gradientTransform="translate(-518.67 -3917.45) rotate(26.82)" gradientUnits="userSpaceOnUse">
<stop offset="0" stop-color="#f8eeed"/>
<stop offset="0.24" stop-color="#f2e8e9"/>
<stop offset="0.34" stop-color="#ece0e0"/>
<stop offset="0.5" stop-color="#ddccc8"/>
<stop offset="0.65" stop-color="#ccb5ad"/>
<stop offset="1" stop-color="#9b887a"/>
</radialGradient>
<radialGradient id="radial-gradient-13" cx="670.05" cy="1172.4" fx="670.0495783244651" r="96" gradientTransform="translate(0 499.85) scale(1 0.56)" xlink:href="#radial-gradient-3"/>
<radialGradient id="radial-gradient-14" cx="2109.8" cy="1089.01" fx="2109.7952983906216" r="95.9" gradientTransform="matrix(0.98, 0.18, -0.12, 0.67, 148.07, 116.87)" xlink:href="#radial-gradient-3"/>
<radialGradient id="radial-gradient-15" cx="-1280.58" cy="-2032.09" r="63.91" gradientTransform="matrix(-0.37, -0.93, 1.21, -0.47, 4042.45, -983.31)" gradientUnits="userSpaceOnUse">
<stop offset="0" stop-color="#a6c7a8"/>
<stop offset="0.43" stop-color="#94b896"/>
<stop offset="0.56" stop-color="#8db290"/>
<stop offset="0.72" stop-color="#8baf8d"/>
<stop offset="0.86" stop-color="#84a484"/>
<stop offset="0.99" stop-color="#789374"/>
<stop offset="1" stop-color="#779273"/>
</radialGradient>
</defs>
<g>
<path d="M347.7,774.46C240.63,686.53,90.25,805.27,150.21,930.54c20-10.44,39.79-20.62,59.79-31.06-15.22-29.49-1.93-66.67,26.8-81.42,28.57-15,66.18-4.46,80.95,25.44,20-10.43,39.79-20.62,59.79-31A122,122,0,0,0,347.7,774.46Z" fill="url(#radial-gradient)" style="isolation: isolate"/>
<path d="M261.29,908.3a35.86,35.86,0,0,0-28.44,41.32A34.62,34.62,0,0,0,273,977.53l.76-.16a35.83,35.83,0,0,0,28.43-41.31,34.68,34.68,0,0,0-40.35-27.87Z" fill="url(#radial-gradient-2)" style="isolation: isolate"/>
<path d="M175.31,905.69c-16.58,8.56-27.8,19.7-25.24,24.81s18.12,2.35,34.56-6.24,27.8-19.69,25.24-24.81S191.8,897.19,175.31,905.69Z" fill="#fc8"/>
<ellipse cx="348.61" cy="828.95" rx="33.8" ry="10.4" transform="translate(-344.49 255.99) rotate(-27.61)" fill="#fc8"/>
</g>
<g>
<path d="M1505.5,912.29c-31.54,25.94-87.2,31-124.32,11.39s-41.56-56.61-10-82.54,87.2-31,124.32-11.39S1537.05,886.36,1505.5,912.29Z" opacity="0.2" fill="url(#radial-gradient-3)" style="isolation: isolate"/>
<polygon points="1267.09 723.11 1392.35 762.27 1377.7 792.63 1254.86 744.62 1267.09 723.11" fill="#a98aa6"/>
<polygon points="1414.38 844.12 1377.7 792.63 1392.35 762.27 1414.38 844.12" fill="#795a76"/>
<polygon points="1350.14 852.66 1377.7 792.63 1414.66 844.39 1350.14 852.66" fill="#82637f"/>
<polygon points="1414.04 844.47 1414.44 844.41 1414.15 844.59 1411.65 845.7 1336.12 881.22 1350.14 852.66 1414.04 844.47" fill="#563753"/>
<polygon points="1350.14 852.66 1336.12 881.22 1225.57 809.2 1234.83 786.93 1350.14 852.66" fill="#7a5b77"/>
<polygon points="1234.83 786.93 1254.86 744.62 1377.7 792.63 1350.14 852.66 1234.83 786.93" fill="#977894"/>
<polygon points="1225.57 809.2 1211.45 749.27 1234.83 786.93 1225.57 809.2" fill="#977894"/>
<polygon points="1211.45 749.27 1267.09 723.11 1254.86 744.62 1211.45 749.27" fill="#9d7c96"/>
<polygon points="1234.83 786.93 1211.45 749.27 1254.86 744.62 1234.83 786.93" fill="#a384a0"/>
</g>
<g>
<path d="M2123.84,877.59c15.75,15.14-20,31.9-80,37.47s-121.66-2.24-137.41-17.41,20-31.93,80-37.47S2107.66,862.46,2123.84,877.59Z" opacity="0.2" fill="url(#radial-gradient-4)" style="isolation: isolate"/>
<path d="M1950.88,889.25c14.12-17.63,28-35,42-52.59-26.25-20.4-30.35-59.82-9.72-85.12,20.47-25.53,59.45-30.64,85.63-9.66,14.12-17.62,27.94-35,42.06-52.58-55.37-44.32-137.35-33.93-180.64,20.33C1886.67,763.17,1895.59,846.24,1950.88,889.25Z" fill="url(#radial-gradient-5)"/>
<path d="M1994.1,837.25c-12.94-10.24-32.83-6.8-44.46,7.68s-10.53,34.59,2.41,44.83,32.84,6.8,44.47-7.68S2007.05,847.49,1994.1,837.25Z" fill="url(#linear-gradient)"/>
<path d="M2111.85,690.11c-12.95-10.24-32.84-6.8-44.47,7.68s-10.53,34.59,2.41,44.83,32.84,6.8,44.47-7.68S2124.79,700.35,2111.85,690.11Z" fill="url(#linear-gradient-2)"/>
</g>
<g>
<path d="M1773.05,780.37c14.68,29.21,7.12,62.67-16.8,74.71S1701,853.17,1686.31,824s-7.12-62.67,16.81-74.71S1758.38,751.16,1773.05,780.37Z" opacity="0.2" fill="url(#radial-gradient-6)" style="isolation: isolate"/>
<polygon points="1692.18 785.73 1691.01 817.8 1728.8 798.57 1730.05 766.5 1692.18 785.73" fill="#779273"/>
<polygon points="1665.76 756.96 1664.52 789.03 1691.01 817.8 1692.18 785.73 1665.76 756.96" fill="#8db290"/>
<polygon points="1730.05 766.5 1703.56 737.73 1665.76 756.96 1692.18 785.73 1730.05 766.5" fill="#a6c7a8"/>
<path d="M1670.83,762c3.37,12,20.84,17.69,39,12.55a45.44,45.44,0,0,0,18.71-10.12l-31.78-33.17C1679.12,736.56,1667.52,750.21,1670.83,762Z" opacity="0.3" fill="url(#radial-gradient-7)" style="isolation: isolate"/>
<polygon points="1710.38 676.46 1707.37 753.66 1798.44 707.42 1801.38 630.15 1710.38 676.46" fill="#779273"/>
<polygon points="1646.61 607.11 1643.6 684.38 1707.37 753.66 1710.38 676.46 1646.61 607.11" fill="#8db290"/>
<polygon points="1801.38 630.15 1737.61 560.8 1646.61 607.11 1710.38 676.46 1801.38 630.15" fill="#a6c7a8"/>
</g>
<g>
<path d="M1757.52,366.11c-6.16,12.6-40.39,17.39-76.48,10.7s-60.36-22.32-54.2-34.92,40.4-17.39,76.48-10.7S1763.68,353.51,1757.52,366.11Z" opacity="0.2" fill="url(#radial-gradient-8)" style="isolation: isolate"/>
<polygon points="1609.94 274.43 1652.12 350.6 1678.86 207.13 1609.94 274.43" fill="#779273"/>
<polygon points="1517.31 290.48 1652.12 350.6 1609.94 274.43 1517.31 290.48" fill="#a6c7a8"/>
<polygon points="1527.6 232.86 1517.31 290.48 1566.2 189.59 1527.6 232.86" fill="#a6c7a8"/>
<polygon points="1678.86 207.13 1566.2 189.59 1609.94 274.43 1678.86 207.13" fill="#a6c7a8"/>
<polygon points="1622.87 181.4 1566.2 189.59 1678.86 207.13 1622.87 181.4" fill="#bad3bb"/>
<polygon points="1566.2 189.59 1517.31 290.48 1609.94 274.43 1566.2 189.59" fill="#bad3bb"/>
</g>
<g>
<path d="M2177.87,401.12c-30.57,24.72-75.07,20.35-99.46-9.8s-19.2-74.57,11.37-99.29,75.07-20.35,99.46,9.8S2208.52,376.4,2177.87,401.12Z" opacity="0.2" fill="url(#radial-gradient-9)" style="isolation: isolate"/>
<circle cx="2182.48" cy="245.88" r="68.88" fill="url(#radial-gradient-10)"/>
<path d="M2232.5,211.94l-1.49,1.73-.57.57a29.3,29.3,0,0,1-4.21,3,14.35,14.35,0,0,1-3.62,1.73l-.74.25c-.58.16-1.07.33-1.65.49.16.58.49,1.73.91,3.14.16.57.32,1.23.49,1.89a88.1,88.1,0,0,1,2.14,16.81,67.72,67.72,0,0,1-3.29,22.16,18.68,18.68,0,0,1-.83,2.31,56.09,56.09,0,0,1-2.55,6.1c.82-.66,1.89-1.4,3.13-2.31l1.73-1.23c3.05-2.15,6.34-4.54,7.83-5.52a22.74,22.74,0,0,1,5.44-2.56l.82-.25a6.92,6.92,0,0,1,1.81-.24c.5-1.9.91-3.79,1.24-5.69.08-.66.25-1.32.33-2a65.53,65.53,0,0,0,.74-13.92,71.44,71.44,0,0,0-4.12-19c-.33-.9-.66-1.73-1-2.47A24.19,24.19,0,0,0,2232.5,211.94Z" fill="#fff" opacity="0.1" style="isolation: isolate"/>
<path d="M2143.18,238.06c-11.46-9.15-12.53-26.86-2.39-39.55s27.68-15.58,39.14-6.43,12.52,26.86,2.39,39.55S2154.63,247.2,2143.18,238.06Z" opacity="0.5" fill="url(#radial-gradient-11)" style="isolation: isolate"/>
<circle cx="2110.79" cy="303.32" r="37.08" fill="url(#radial-gradient-12)"/>
<path d="M2095.88,287.74c-2.22-7.58,2.8-15.74,11.12-18.21s17,1.65,19.2,9.23-2.8,15.74-11.12,18.21S2098.11,295.32,2095.88,287.74Z" fill="none"/>
</g>
<g>
<path d="M755.88,1173.29c-5.22,30.86-39,50.93-75.4,44.79S618.77,1181.92,624,1151s39-50.93,75.4-44.79S761.11,1142.35,755.88,1173.29Z" opacity="0.2" fill="url(#radial-gradient-13)" style="isolation: isolate"/>
<polygon points="643.49 1077.66 596.79 1077.66 565.69 1130.58 643.49 1077.66" fill="#a98aa6"/>
<polygon points="614.21 1179.51 643.49 1077.66 565.69 1130.58 614.21 1179.51" fill="#977894"/>
<polygon points="674.84 1154.3 643.49 1077.66 614.21 1179.51 674.84 1154.3" fill="#563753"/>
<polygon points="662.9 1091.51 643.49 1077.66 674.84 1154.3 662.9 1091.51" fill="#82637f"/>
</g>
<g>
<path d="M2152.09,1252.56c-12,25.53-50,33-84.8,16.63s-53.32-50.31-41.33-75.84,49.95-33,84.79-16.64S2164.08,1227,2152.09,1252.56Z" opacity="0.2" fill="url(#radial-gradient-14)" style="isolation: isolate"/>
<path d="M2142.26,1142.31a73.76,73.76,0,0,0-1.76-19.14,75.85,75.85,0,0,0-3-10.26.65.65,0,0,0-.18-.37c.94,3,.59,6.38-1.24,10.31-8.88,19.06-48.94,42.15-89.51,51.59-31.37,7.3-53.89,4.31-58.38-6.23a79.22,79.22,0,0,0,44.27,45.4c-.12,0-.29-.13-.41-.16,2.56,1,5.07,2,7.74,2.78a93.81,93.81,0,0,0,10.06,2.29,76.29,76.29,0,0,0,21.39.58,80.79,80.79,0,0,0,33.47-11.56,78.83,78.83,0,0,0,17-14.24,77.31,77.31,0,0,0,12.69-19,85.24,85.24,0,0,0,5-13.65A67.84,67.84,0,0,0,2142.26,1142.31Z" fill="url(#radial-gradient-15)"/>
<path d="M2046.7,1174.41c40.58-9.44,80.64-32.53,89.52-51.59,1.83-3.93,2.19-7.42,1.24-10.31a8.12,8.12,0,0,0-1.63-3l-.14-.23a.54.54,0,0,1-.25-.32c-.05-.07-.16-.16-.21-.24a1.08,1.08,0,0,0-.31-.33.31.31,0,0,0-.22-.18,1.54,1.54,0,0,0-.37-.35c0-.08-.11-.09-.16-.17a1.87,1.87,0,0,0-.43-.36c-.06,0-.11-.09-.17-.1s-.33-.27-.5-.38-.06,0-.11-.09a23.4,23.4,0,0,0-2.68-1.6c-.17-.11-.29-.14-.46-.24a.58.58,0,0,0-.3-.13,40.94,40.94,0,0,0-12.36-3,.74.74,0,0,0-.33,0c-.18,0-.38,0-.57-.06a27.42,27.42,0,0,0-3.39-.21c-.13,0-.33,0-.45,0a20.38,20.38,0,0,0-2.07,0c-.39,0-.85,0-1.23,0-.2,0-.39,0-.53,0-2.67,0-5.43.16-8.36.45-.34,0-.6,0-.94.11s-.79.07-1.25.09c-.74.09-1.48.18-2.27.25l-.34,0-2.62.37c-.06,0-.06,0-.14,0-1.07.14-2.1.35-3.17.49a4.34,4.34,0,0,1-.88.12c-.75.15-1.56.29-2.37.42-.55.14-1.09.2-1.7.32-.28.07-.61.12-.89.18-.95.17-1.91.4-2.88.63a1.31,1.31,0,0,0-.55.13c-.49.15-1,.22-1.51.36s-1,.23-1.38.33-.9.25-1.38.33-1,.28-1.59.41l-2.71.73c-.07,0-.13,0-.21.08-2.29.64-4.53,1.29-6.77,2-.08,0-.22.08-.29.12-.85.26-1.76.57-2.6.83a7.82,7.82,0,0,1-1.33.4c-.29.13-.63.18-.92.31-3,1-5.87,2-8.74,3.16-.06,0-.07,0-.14,0-1,.35-2,.77-2.93,1.14l-.87.38c-.43.16-.87.38-1.36.52-.71.29-1.45.64-2.16.93l-.8.33-2.53,1.1c-.06,0-.08,0-.14,0-1.23.55-2.47,1.11-3.64,1.68-.29.13-.52.27-.81.4-.89.44-1.83.87-2.72,1.31s-1.55.81-2.36,1.21a4.1,4.1,0,0,0-.74.41c-3.92,2-7.74,4.17-11.24,6.34-.46.29-1,.56-1.45.9l-1.67,1c-1.07.66-2.07,1.34-3.08,2l-.22.15c-1.8,1.27-3.58,2.48-5.24,3.78a6.24,6.24,0,0,1-.79.59c-.17.16-.32.26-.49.41-2.47,2-4.91,4.06-7.19,6.26l-.07,0c-.5.47-.92.89-1.36,1.38l-1,1.12c-.09.11-.16.15-.25.26-.53.59-1,1.14-1.51,1.73,0,.06-.08,0-.09.11s0,.06-.09.11a36.8,36.8,0,0,0-4.68,7.23,16.3,16.3,0,0,0-1.69,6.11c0,.2,0,.44,0,.64a.23.23,0,0,0,0,.2c0,.26,0,.52,0,.72s0,.14,0,.2c0,.26.07.54.07.8v.06c.06.28.12.62.18.89,0,.06,0,.08,0,.14a4.81,4.81,0,0,0,.26.84c0,.06,0,.06,0,.08s.11.35.21.5C1992.82,1178.72,2015.34,1181.71,2046.7,1174.41Z" fill="#a6c7a8"/>
<polygon points="2032.04 1073.24 2016.29 1096.03 2052.74 1099.57 2068.43 1076.71 2032.04 1073.24" fill="#779273"/>
<polygon points="2026.04 1040.07 2010.3 1062.86 2016.29 1096.03 2032.04 1073.24 2026.04 1040.07" fill="#8db290"/>
<polygon points="2068.43 1076.71 2062.5 1043.54 2026.04 1040.07 2032.04 1073.24 2068.43 1076.71" fill="#a6c7a8"/>
</g>
</svg>
