<svg version="1.1" id="Layer_1" xmlns="http://www.w3.org/2000/svg" x="0" y="0" width="600" height="600" viewBox="0 0 600 600" xml:space="preserve"><path opacity=".3" fill="#FFF" d="M468.1 597.1c-1 0-1.9-1-1.9-2.3v-397c0-1.3.8-2.3 1.9-2.3 1 0 1.9 1 1.9 2.3v397c-.1 1.3-.9 2.3-1.9 2.3zm17.5 0c-1 0-1.9-1-1.9-2.3v-397c0-1.3.8-2.3 1.9-2.3 1 0 1.9 1 1.9 2.3v397c-.1 1.3-.9 2.3-1.9 2.3zm17.4 0c-1 0-1.9-1-1.9-2.3v-397c0-1.3.8-2.3 1.9-2.3 1 0 1.9 1 1.9 2.3v397c0 1.3-.8 2.3-1.9 2.3zm17.5 0c-1 0-1.9-1-1.9-2.3v-397c0-1.3.8-2.3 1.9-2.3 1 0 1.9 1 1.9 2.3v397c0 1.3-.8 2.3-1.9 2.3zm17.5 0c-1 0-1.9-1-1.9-2.3v-397c0-1.3.8-2.3 1.9-2.3 1 0 1.9 1 1.9 2.3v397c0 1.3-.8 2.3-1.9 2.3zm-215.5-511c4.7 17.5 7.2 36 7.2 55 0 116.9-94.8 211.7-211.7 211.7-43.9 0-84.8-13.4-118.6-36.3v127.8c36.7 14.4 76.7 22.3 118.6 22.3 179.7 0 325.4-145.7 325.4-325.4 0-27-3.3-53.3-9.5-78.5L322.5 86.1z"/></svg>